Coordinates
version=1
nRows=16
nColumns=36
inDegrees=yes

Units are S.I. units (second, meters, Newtons, ...)
If the header above contains a line with 'inDegrees', this indicates whether rotational values are in degrees (yes) or radians (no).

endheader
time	pelvis_tilt	pelvis_list	pelvis_rotation	pelvis_tx	pelvis_ty	pelvis_tz	hip_flexion_r	hip_adduction_r	hip_rotation_r	knee_angle_r	knee_angle_r_beta	ankle_angle_r	subtalar_angle_r	mtp_angle_r	hip_flexion_l	hip_adduction_l	hip_rotation_l	knee_angle_l	knee_angle_l_beta	ankle_angle_l	subtalar_angle_l	mtp_angle_l	lumbar_extension	lumbar_bending	lumbar_rotation	arm_flex_r	arm_add_r	arm_rot_r	elbow_flex_r	pro_sup_r	arm_flex_l	arm_add_l	arm_rot_l	elbow_flex_l	pro_sup_l
      1.73000000	    -27.80215181	      0.57704609	     -6.36858937	     -0.35767965	      0.81988879	     -0.55961033	     87.62496486	     -2.65753567	      8.89196102	     88.23516970	      1.53999423	     17.98587514	    -19.00569332	     -7.33052154	     84.39563136	    -10.97880737	     10.71159298	     92.32134375	      1.61131142	     21.48938839	    -19.21342743	     -7.33052154	    -31.69276656	     -3.97587124	      4.39070281	    110.50896377	    -19.79801002	     32.09465820	     95.25862273	    106.64652100	    110.12851548	    -10.81682640	     38.15586873	     88.47708222	    105.75169262
      1.74000000	    -27.41012912	      0.48050424	     -6.46580794	     -0.35452131	      0.83281472	     -0.55899911	     85.61310597	     -2.16702442	      9.07747940	     86.29922373	      1.50620560	     16.87110762	    -20.37749756	     -7.33897076	     82.30435124	    -10.69337692	     10.74597603	     90.25551648	      1.57525593	     20.46020849	    -20.79056985	     -7.33897076	    -31.07940623	     -3.97031825	      4.79249177	    112.76522390	    -20.77520904	     33.68381575	     95.05729840	    104.88419762	    112.76719479	    -10.89848309	     39.27857201	     86.60924864	    104.56680218
      1.75000000	    -26.82833535	      0.34708775	     -6.62337244	     -0.35104959	      0.84619811	     -0.55839946	     83.32773654	     -1.64547302	      9.34750992	     84.28631925	      1.47107379	     16.82034124	    -20.60280322	     -7.34113660	     79.96344671	    -10.53241986	     10.79702096	     88.18851096	      1.53917988	     20.58742960	    -21.25253084	     -7.34113660	    -30.61397885	     -3.88838363	      4.89867129	    115.23037248	    -21.15242794	     35.21998371	     93.97987409	    104.42568981	    115.64185995	    -11.32755727	     40.48313727	     84.51039623	    104.15236177
      1.76000000	    -26.23783497	      0.45281734	     -6.67029474	     -0.34723949	      0.85981407	     -0.55819391	     81.08342991	     -1.37848517	      9.79769936	     82.24247264	      1.43540193	     16.44368893	    -21.10075397	     -7.34438192	     77.51420112	    -10.17772719	     10.61731537	     85.95298118	      1.50016252	     20.24257489	    -21.94290753	     -7.34438192	    -30.10462118	     -3.96721410	      4.81624863	    117.89499903	    -21.59658295	     36.94162951	     93.00351456	    103.66157754	    118.36671738	    -11.43914167	     41.27155819	     82.35105129	    103.56857711
      1.77000000	    -25.69325574	      0.53997760	     -6.62300969	     -0.34310060	      0.87360003	     -0.55820420	     78.83815483	     -1.28001750	     10.14285951	     80.10531050	      1.39810142	     15.79980411	    -21.85004045	     -7.38268836	     75.11831226	     -9.77159146	     10.44961586	     83.61993239	      1.45944314	     19.60395743	    -22.85213870	     -7.38268836	    -29.40645519	     -3.95957838	      4.63116814	    120.49632097	    -21.93846135	     38.91638171	     92.11641578	     95.94254997	    120.94700513	    -11.52270892	     42.23992942	     80.35493263	     99.55657265
      1.78000000	    -25.05118568	      0.52905833	     -6.59755321	     -0.33849272	      0.88800518	     -0.55812662	     76.40367413	     -1.23127243	     10.33378137	     77.86210409	      1.35895008	     15.66287936	    -21.95432551	     -7.38407140	     72.60670519	     -9.52793065	     10.28533453	     81.23013191	      1.41773325	     19.41502292	    -23.12657680	     -7.38407140	    -28.73390982	     -3.80977901	      4.40366095	    123.05543262	    -21.94686790	     40.40649117	     90.27385172	     95.80037460	    123.48935152	    -11.94970490	     43.20087087	     78.19065970	     99.27891749
      1.79000000	    -24.35848583	      0.50190232	     -6.65772365	     -0.33334004	      0.90314948	     -0.55784164	     73.82630873	     -1.16910278	     10.47978851	     75.45051270	      1.31685987	     15.32048682	    -22.11543679	     -7.38557436	     69.97496191	     -9.50078872	      9.95428205	     78.68103448	      1.37324311	     18.96101179	    -23.48505866	     -7.38557436	    -28.12789110	     -3.71825745	      4.25729453	    125.79715325	    -22.29268527	     42.22087979	     88.67116249	     95.65527132	    126.10066803	    -12.62628672	     44.52893754	     76.70296673	     99.01585462
      1.80000000	    -23.77497968	      0.49618577	     -6.71284710	     -0.32772438	      0.91865145	     -0.55752141	     71.30065752	     -1.22608170	     10.49638516	     72.86810642	      1.27178838	     14.75750637	    -22.32534302	     -7.38734546	     67.38455400	     -9.56803518	      9.48769111	     75.96306811	      1.32580565	     18.31048405	    -23.82236631	     -7.38734546	    -27.31832934	     -3.62577016	      4.06209703	    128.50272982	    -22.76175502	     44.30202649	     87.31079898	     95.45901662	    128.55912482	    -13.51417107	     46.00777557	     75.85884985	     98.69926654
      1.81000000	    -23.27823659	      0.47881233	     -6.68327832	     -0.32162318	      0.93472975	     -0.55738034	     68.77253229	     -1.45405551	     10.34996175	     70.06313847	      1.22283245	     13.51430890	    -22.90387344	     -7.39280852	     64.81084657	     -9.65303514	      8.92402404	     73.01479158	      1.27434852	     17.07282786	    -24.40570352	     -7.39280852	    -26.32237128	     -3.46399362	      3.87526915	    131.11469178	    -23.55966850	     46.70993680	     86.57240156	     94.65721463	    130.74011093	    -14.63684280	     47.60056404	     75.78711779	     97.54247907
      1.82000000	    -22.61323969	      0.49495536	     -6.53390003	     -0.31489324	      0.95193180	     -0.55745393	     65.99336585	     -1.97352199	     10.02116273	     67.10150993	      1.17114228	     12.75522116	    -22.54096498	     -7.39486095	     61.91564205	     -9.72209389	      8.20537880	     69.78108569	      1.21790970	     16.43430631	    -24.05826991	     -7.39486095	    -25.49291237	     -3.28892821	      3.58624577	    133.64398172	    -24.56450228	     49.05727902	     86.38059547	     94.35616237	    132.77087824	    -16.14138941	     49.16566005	     76.36259323	     97.25346497
      1.83000000	    -21.88272156	      0.50200925	     -6.33705989	     -0.30755231	      0.97008904	     -0.55766038	     63.05306903	     -2.66660958	      9.49287070	     63.89667805	      1.11520741	     11.43303664	    -22.16690661	     -7.39771556	     58.85800808	     -9.81931607	      7.36685627	     66.32142701	      1.15752727	     15.29833084	    -23.76802823	     -7.39771556	    -24.68556073	     -3.08572139	      3.44895001	    136.17046504	    -26.03170588	     51.53786539	     86.88974803	     93.93576153	    134.44991850	    -17.82341715	     50.45353709	     77.57498197	     96.94695668
      1.84000000	    -21.21584261	      0.48136507	     -6.26086765	     -0.29937828	      0.98903292	     -0.55727336	     60.11300272	     -3.25670970	      8.87196113	     60.56776919	      1.05710699	      9.93423715	    -21.25735960	     -7.39936805	     55.69679065	    -10.19826047	      6.27247533	     62.55467088	      1.09178497	     14.11520492	    -22.97372553	     -7.39936805	    -23.64941416	     -2.97640356	      3.31518946	    137.89273386	    -27.76508431	     53.22370498	     88.24223741	     93.84853947	    135.58233306	    -19.75242617	     51.18499341	     79.58510846	     97.01351260
      1.85000000	    -20.39853072	      0.44515000	     -6.31416099	     -0.29044766	      1.00910963	     -0.55667733	     56.89094147	     -3.75495009	      8.26302131	     56.98161574	      0.99451681	      8.07421218	    -20.22186485	     -7.40116632	     52.21100305	    -10.74277359	      4.81811265	     58.50787498	      1.02115506	     12.57254161	    -22.08167754	     -7.40116632	    -22.66411599	     -2.84710710	      3.33433749	    139.61705459	    -29.78314696	     55.29297348	     90.01167461	     93.82869982	    136.47235649	    -22.11600198	     52.13517878	     81.99857396	     97.19846313
      1.86000000	    -19.45680064	      0.35724865	     -6.39976570	     -0.28074626	      1.03037080	     -0.55594450	     53.37309761	     -4.27627423	      7.41787736	     53.08243858	      0.92646333	      5.87016981	    -19.00422543	     -7.40391415	     48.41390923	    -11.32352352	      3.19343367	     54.13052208	      0.94475584	     10.52398147	    -21.05845158	     -7.40391415	    -21.59588514	     -2.67173878	      3.52154775	    141.10852095	    -32.15675200	     57.81069417	     92.26844597	     93.77903509	    136.94068066	    -24.79832190	     53.52736959	     84.57399018	     97.40165478
      1.87000000	    -18.36081061	      0.28249163	     -6.49682926	     -0.27026929	      1.05276954	     -0.55531568	     49.52851384	     -4.89601865	      6.39264007	     48.83218851	      0.85228247	      3.50041943	    -17.11451512	     -7.40647169	     44.23803714	    -11.85848366	      1.25518071	     49.37976634	      0.86183951	      8.24530797	    -19.54145548	     -7.40647169	    -20.58755403	     -2.50137169	      3.73301382	    142.35543216	    -34.88884614	     60.33394996	     95.11731523	     93.89034807	    137.29090441	    -27.99341011	     55.62573389	     87.56048026	     97.60887808
      1.88000000	    -17.11966592	      0.22277459	     -6.59275995	     -0.25892610	      1.07610187	     -0.55475413	     45.34592148	     -5.61451213	      5.14715323	     44.21117126	      0.77163050	      0.81679951	    -14.68522064	     -7.40892570	     39.69119922	    -12.32535326	     -1.07826246	     44.23509626	      0.77204807	      5.63024167	    -17.58315629	     -7.40892570	    -19.57842380	     -2.33090764	      3.99449981	    143.50908945	    -38.00683021	     63.30094984	     98.38138301	     94.13567659	    137.54241166	    -31.66144038	     58.64422952	     90.82806600	     97.71850476
